<svg xmlns="http://www.w3.org/2000/svg" viewBox="0 0 200 200"><polygon points="100.00,62.00 111.33,24.85 111.20,63.69" fill="#F5C518"/><polygon points="111.20,63.69 132.98,31.53 121.41,68.60" fill="#F5C518"/><polygon points="121.41,68.60 151.69,44.29 129.71,76.31" fill="#F5C518"/><polygon points="129.71,76.31 165.82,62.00 135.37,86.12" fill="#F5C518"/><polygon points="135.37,86.12 174.09,83.09 137.89,97.16" fill="#F5C518"/><polygon points="137.89,97.16 175.79,105.68 137.05,108.46" fill="#F5C518"/><polygon points="137.05,108.46 170.75,127.77 132.91,119.00" fill="#F5C518"/><polygon points="132.91,119.00 159.42,147.39 125.85,127.86" fill="#F5C518"/><polygon points="125.85,127.86 142.81,162.79 116.49,134.24" fill="#F5C518"/><polygon points="116.49,134.24 122.40,172.62 105.66,137.58" fill="#F5C518"/><polygon points="105.66,137.58 100.00,176.00 94.34,137.58" fill="#F5C518"/><polygon points="94.34,137.58 77.60,172.62 83.51,134.24" fill="#F5C518"/><polygon points="83.51,134.24 57.19,162.79 74.15,127.86" fill="#F5C518"/><polygon points="74.15,127.86 40.58,147.39 67.09,119.00" fill="#F5C518"/><polygon points="67.09,119.00 29.25,127.77 62.95,108.46" fill="#F5C518"/><polygon points="62.95,108.46 24.21,105.68 62.11,97.16" fill="#F5C518"/><polygon points="62.11,97.16 25.91,83.09 64.63,86.12" fill="#F5C518"/><polygon points="64.63,86.12 34.18,62.00 70.29,76.31" fill="#F5C518"/><polygon points="70.29,76.31 48.31,44.29 78.59,68.60" fill="#F5C518"/><polygon points="78.59,68.60 67.02,31.53 88.80,63.69" fill="#F5C518"/><polygon points="88.80,63.69 88.67,24.85 100.00,62.00" fill="#F5C518"/><circle cx="100" cy="100" r="28" fill="#F5C518"/></svg>